<?xml version="1.0" encoding="utf-8"?>
<!-- Generator: Adobe Illustrator 29.3.1, SVG Export Plug-In . SVG Version: 9.03 Build 55982)  -->
<svg version="1.1" baseProfile="tiny" id="Layer_1" xmlns="http://www.w3.org/2000/svg" xmlns:xlink="http://www.w3.org/1999/xlink"
	 x="0px" y="0px" viewBox="0 0 500.9 204.8" overflow="visible" xml:space="preserve">
<path fill="#FFFFFF" d="M88.7,43.5c0,23-15.7,39.7-37.8,39.7c-22.7,0-41.1-18.5-41.1-41.4C9.8,19,28.2,0.5,50.9,0.5
	c11.4,0,21.7,4.5,29.2,11.9l-8.5,7.4c-5.3-5.1-12.6-8.3-20.7-8.3c-16.5,0-30,13.6-30,30.2c0,16.9,13.5,30.2,30,30.2
	c12.9,0,22.3-8.1,25.4-21.6H50.4l-0.2-11.1h38.5V43.5z"/>
<path fill="#FFFFFF" d="M115,0.5c19.2,0,33.8,5.5,33.8,26.3c0,20.9-19.1,22.5-19.1,22.5l23.3,33.8h-19.6l-16.6-26.3v-19h4
	c0,0,10.9,0.2,10.9-11c0-11.1-12.3-10.5-12.3-10.5h-7.8v66.8H94.7V0.5H115z"/>
<path fill="#FFFFFF" d="M313.9,72.5c-2.8,2.6-8.1,7-11,9.6V82c-0.9,0.8-2.3,1-3.4,0.3c-4.9-3.9-5.7-5.8-8.2-9.6
	c-8,8.1-13.6,10.4-23.9,10.4c-12.2,0-21.6-7.4-21.6-22.4c0-11.6,6.4-19.7,15.6-23.6c7.7-3.5,18.7-4.2,27.1-5.1v-1.7
	c0-3.6,0.2-7.5-1.7-10.6c-1.7-2.7-5.2-3.7-8.2-3.7c-5.3,0-10.3,2.9-11.6,8.7c-0.1,1.3-1,2.6-2.4,2.6L250.4,26
	c-1.3-0.3-2.6-1.3-2.2-3.1c3.3-17,18.6-22.1,32.4-22.1c7,0,16,2,21.6,7.3c7.1,6.4,6.4,15.2,6.4,24.8v22.4c0,6.6,2.9,9.6,5.3,13.5
	C315,70.1,315.2,71.6,313.9,72.5z M288.3,46.9v-3.1c-10.4,0-21.6,2.2-21.6,14.5c0,6.3,3.3,10.6,8.8,10.6c4.1,0,7.8-2.6,10-6.6
	C288.3,57.2,288.3,52.6,288.3,46.9z"/>
<path fill="#FFFFFF" d="M485.7,83c-22.9,0-41.3-18.4-41.3-41.3c0-22.8,18.4-41.2,41.3-41.2h15.2v10.3h-15.2c-17.1,0-31,13.9-31,30.9
	c0,17.1,13.9,30.9,31,30.9h15.2V83H485.7z M485.7,59.5c-9.8,0-17.8-8-17.8-17.8c0-9.7,8-17.5,17.8-17.5h15.2V13.7h-15.2
	c-15.5,0-28.1,12.6-28.1,28c0,15.5,12.6,28.1,28.1,28.1h15.2V59.5H485.7z"/>
<path fill="#FFFFFF" d="M5.6,131.7c-3.2,0.1-5.6-1.5-5.6-3.4c-0.4-1.2,3-5.9,4.7-6.5c1.4-0.4,7.5-2.7,18.2-3.1
	c3.7-0.2,10.5,0.4,16.2,1.1c32.4,4.7,66.4,29.7,67.1,51.8c0.6,14.6-12.6,28.9-37.7,29.7c-6.6,0-13-0.7-18.5-2.1
	c0,3.7,0.1,5.6-5.2,5.6c-2.9,0.4-4.2-5-4.9-9.1c-15.2-6.7-24.3-17.6-24.3-22.2c-0.1-6.5,11.6-11.9,25.3-14c0.1-5.4,1-18.7,3.6-19.1
	c1.4,0,3.6,2.7,4.6,6.7c0.9,3.6,0.9,10.5,0.9,11.6h1C70.5,158,82,164,82.2,171.2c0,5.4-4.9,8.4-7.5,8.4c-2.4,0.1-5.4-1.4-5.4-2.1
	c-0.1-1.6,5.4-2,5.4-4.2c-0.1-3.9-15.6-5.4-24.8-5.4v9.6c0,2.2,0.2,8.7,0.2,14.1c4.2,1.1,8.9,1.4,13.1,1.4
	c10.2-0.2,33.2-4,32.7-21.3c-0.5-24.5-48.8-47-74.6-46.3C11.1,125.7,5,126.8,5,127.8c0,0.9,4.9,0.9,5.2,2.1
	C10.3,131.3,7.3,131.7,5.6,131.7z M40.7,168c-9.7,0.9-22,2.9-21.7,6c0,3.5,9.2,10.4,21.1,14.7C40.7,181.4,40.7,174,40.7,168z"/>
<path id="News_Corp_00000183948484348392488960000010059105853554527903_" fill="#FFFFFF" d="M456.2,97.9c1.7,0.4,3.3,1.1,4.5,2.1
	c1.5,2,1.6,4.8,0.4,6.7c-2.4,4.9-6.3,8.6-9.8,12.8c-8.8,11.6-16.2,24.4-23.1,37.2c-6.7,12.7-13.1,25.5-18.5,38.6
	c-0.9,2-2.4,3.7-4.6,3.8c-2.4,0.3-4.8-0.5-7-1.3c-1.8-0.8-2.4-2.9-2.4-4.8c0.3-7.8-2.8-15.3-4.2-22.7c-2-10.2-2.8-20.2-2.9-30.2
	c-7.7,14.1-15.2,28.5-22.3,42.9c-1.7,3.4-3.6,6.7-4,10.8c-0.3,0.7,0,1.5,0.1,2.2c-0.8,1.8-2.2,3.7-4.2,4.5c-2.9,1.3-6.5,0.8-9.4-0.4
	c-1.3-0.4-2.2-1.6-2.5-2.9v-1.8c0.5-3.4,2.5-6.3,4.2-9.4c5-8.5,9.9-16.8,14.7-25.4c5.5-9.4,10.3-19,15.1-28.8
	c2-4.1,3.2-8.6,3.4-12.9c3.3-1.2,7-0.8,10.2,0.4c2.6,0.9,4.1,3.7,4.2,6.2c0.8,9.8,1.1,19.5,1.8,29.3c0.8,8.5,2.9,16.5,5.4,24.4
	c9.9-21.7,20.9-42.9,33.3-63.1c2.8-4.8,5.4-9.5,8.8-13.7c1.7-2.1,4-4.1,6.9-4.6H456.2z"/>
<path id="Netflix" display="none" d="M385.3,165.6l-17-47.1H356v83.2c4.3-0.6,8.7-1.2,13-1.8v-45.3l15.1,43.4
	c4.7-0.6,9.5-1.1,14.3-1.5v-78h-13V165.6z"/>
<path fill="#FFFFFF" d="M388.2,0.7c-1.1,27.1-2.2,54.2-3.9,81.1c0,0,0,0.4-0.2,0.4l-13.8,0.7v-0.2c-2.5-6.2-4.5-12.8-6.7-19.1
	c-1.3-2.1-2.9-2.8-4.3-2.9c-1.8-0.4-3.6-0.6-5.6-0.6c-2,0-4.1,0.2-6.3,0.6c-2,0.5-3.3,1.6-3.9,3.4c-1.9,6.1-4.3,13-6.3,19l-13.6-0.1
	c-2.1-26.7-3.4-54.7-4.2-81.9l11.4-0.5c2.6,13.6,5.4,27.4,8.1,41.1c0.4,3.6,2.3,6,5.7,6.9c2.8,0.5,6.2,0.7,9.1,0.7
	c2.7,0,5.6-0.2,8.3-0.7c2.3-0.6,4.7-1.5,5.6-4.7c4.2-14.3,6.9-29,9.7-43.1c0.2-0.2,0.2-0.2,0.2-0.6l10.2,0.6H388.2z"/>
<path fill="#FFFFFF" d="M399.8,83c-0.2-0.1,0-5.9,0-5.9h39.8v5.8L399.8,83z M439.6,5.9h-39.8V0h39.8V5.9z M439.6,11.1v5.8h-39.8
	v-5.8H439.6z M439.6,66v5.9h-39.8V66H439.6z M410.9,28v-5.9h17.1V28H410.9z M428.1,33.1v5.8h-17.1v-5.8H428.1z M410.9,44h17.1v5.9
	h-17.1V44z M428.1,55.1V61h-17.1v-5.9H428.1z"/>
<path fill="#FFFFFF" d="M244.4,23.4c0-10.9-12.2-21-32.9-22c-18.8-0.9-50.5,8.9-50.5,34.7c0,12.7,11.6,17.1,19.6,17.1
	c8,0,15.3-5.2,15.3-10.3c0-5.3-3-5.2-3.9-5.2c-2.2,0-4.2,3.1-2.8,6.9c0.9,2.4-1.4,7.4-8.9,7.4c-5.2,0-12.5-4.2-12.5-15.8
	c0-11.6,13.1-32.9,43.6-32.9c10.9,0,23.7,5.9,23.7,20.2c0,8.3-8.3,20.3-20.8,20.3c0,0,3-16.4,11.2-26.6c0.7-0.8-0.3-1.6-1.4-0.8
	c-26,16.6-22.7,65.3-52.2,65.3c-2.9,0-13.9-0.7-13.9-9.2c0,0-0.6-2,2-3.6c1.3-0.8,2.2-2.2,2.2-3.7c0-2.6-2.2-4.6-4.6-4.6
	c-2.5,0-3.6,2.2-4.5,4.6c-0.7,2.1-1,18.1,18.9,18.3c14.8,0.2,36.2-10.1,41.4-37.1C213.5,46.1,244.4,42.8,244.4,23.4"/>
<path fill="#FFFFFF" d="M152.3,118.9c-18.3-1.3-38.5,13.8-37.8,33.5c0.1,1.9,1.7,3.6,4,3.6c2.8,0,11.1-0.3,11.1-0.3
	s-16.4,12.9-16.4,28c0,8,6,17.5,18.5,17.5c17.5,0,30.5-14.3,30.5-26.4c0-0.9-1.1-2.2-2.8-0.2c-2.7,3.3-17.2,18.2-31.6,18.2
	c-4.8,0-9-2.7-9-8.5c0-7.5,12-22.2,32.5-28c5-1.5,5.5-8.5-0.9-8.8c-6.3-0.3-28,2.1-29.6,2.1c-1.6,0-1.7-0.3-1.2-1.8
	c0.7-1.9,8.7-15.8,32.6-18.5C160.4,128.7,159.6,119.4,152.3,118.9"/>
<path fill="#FFFFFF" d="M320.3,161.8v1.3c0,0,7.8-0.4,7.8,8.1V189c0,0.3,0,0.6,0,1v2.1c-5.1,2.8-10.8,4.2-16.6,4.2
	c-5.5,0-23-1.2-23-36.1s20-36.8,23.3-37.1c2-0.2,10.7-0.4,17.4,5.3c6.7,5.7,7.9,14.8,7.9,14.8h2v-21.6h-1.1
	c-1.1,1.2-2.7,1.8-4.3,1.7c-3.9,0-10.2-5-21.7-4.7c-23.3,0.8-39.8,18.1-39.8,43.3c0,24.6,19.5,39.3,38.7,39.3c2.7,0,5.3-0.2,8-0.5
	h0.1c1.2-0.2,2.5-0.3,3.9-0.6h0.3h0.1c1.7-0.3,3.3-0.7,4.7-1.1c3.6-0.6,8.6-1,12.6,0.9v-11.4l0,0V187l0,0v-15.8
	c0-8.5,7.8-8.1,7.8-8.1v-1.3H320.3z"/>
<path fill="#FFFFFF" d="M247.4,150.3c-3.1-1.1-5.4-1.7-8.1-2.7c-2.2-0.8-3.8-2.2-3.8-4.5c0-2.8,2.6-4.1,5.4-4.1
	c4.1,0,8.1,1.1,15.5,3.5l5.9-18.6c-5.7-2.6-14.5-5.3-25.6-5.3c-15.1,0-25.6,10.7-25.6,26.5c0,11.4,5,19.6,18.5,24
	c3.8,1.3,5.8,1.9,8,2.8c2.1,0.8,3.2,2.4,3.2,4.2c0,3.1-2.7,4.2-6.1,4.2c-4.6,0-10.3-1.7-18.4-5l-6.4,18.9c6.4,3.7,16.6,7,26.8,7
	c17.2,0,28.7-11.3,28.7-27.3C265.3,162.9,261.3,154.5,247.4,150.3L247.4,150.3z"/>
<path fill="#FFFFFF" d="M186.2,118.9c-7.9,3.3-16.6,12.7-19.4,24.4c-3.5,14.9,11,21.2,12.2,19.1c1.4-2.4-2.6-3.2-3.4-11
	c-1.1-10,3.6-21.1,9.4-26c1.1-0.9,1,0.4,1,2.7c0,4.2-0.2,41.7-0.2,49.6c0,10.6-0.4,14-1.2,17.3c-0.8,3.4-2.1,5.6-1.1,6.5
	c1.1,1,5.7-1.3,8.4-5.1c3.2-4.5,4.3-9.9,4.5-15.7c0.2-7.1,0.2-18.3,0.2-24.6c0-5.9,0.1-23-0.1-33.3
	C196.5,120.1,189.5,117.5,186.2,118.9"/>
<g>
</g>
<g>
</g>
<g>
</g>
<g>
</g>
<g>
</g>
<g>
</g>
</svg>
